<svg width="64" height="64" viewBox="0 0 64 64" fill="none" xmlns="http://www.w3.org/2000/svg">
<path d="M32 2C15.432 2 2 15.432 2 32C2 48.568 15.432 62 32 62C48.568 62 62 48.568 62 32C62 15.432 48.568 2 32 2ZM56 32C56.0066 37.3298 54.2308 42.5087 50.955 46.713L46.348 42.106C47.359 40.782 47.873 39.26 47.873 37.53C47.873 36.067 47.548 34.743 46.898 33.557C46.248 32.369 45.278 31.416 43.99 30.698C45.249 29.978 46.066 29.131 46.444 28.154C46.821 27.177 47.01 26.263 47.01 25.413C47.01 23.519 46.295 21.905 44.865 20.568C43.436 19.232 41.419 18.564 38.812 18.564C36.205 18.564 34.187 19.232 32.758 20.568C31.328 21.905 30.614 23.519 30.614 25.413C30.614 25.756 30.653 26.111 30.715 26.475L27.504 23.264V18.969H23.226C23.2258 18.9741 23.2252 18.9791 23.224 18.984L17.286 13.046C21.4905 9.76977 26.6698 7.99359 32 8C45.255 8 56 18.745 56 32ZM35.523 25.987C35.523 24.957 35.814 24.151 36.398 23.569C36.981 22.988 37.788 22.697 38.822 22.697C39.868 22.697 40.675 22.988 41.246 23.569C41.816 24.151 42.102 24.957 42.102 25.987C42.102 26.934 41.816 27.707 41.246 28.305C40.675 28.905 39.868 29.204 38.822 29.204C37.788 29.204 36.981 28.904 36.398 28.305C35.814 27.707 35.523 26.935 35.523 25.987ZM38.831 33.125C39.981 33.125 40.895 33.469 41.572 34.158C42.25 34.847 42.588 35.857 42.588 37.187C42.588 37.568 42.549 37.916 42.49 38.248L37.553 33.311C37.9678 33.1879 38.3983 33.1252 38.831 33.125ZM8 32C7.99352 26.6702 9.76934 21.4913 13.045 17.287L19.08 23.322C18.408 23.427 17.434 23.511 16.127 23.569V27.056H22.258V45.033H27.506V31.749L30.291 34.534C29.9277 35.4904 29.7453 36.506 29.753 37.529C29.753 39.722 30.502 41.588 32.003 43.129C33.501 44.668 35.709 45.438 38.625 45.438C39.47 45.438 40.255 45.366 40.991 45.236L46.712 50.957C42.5074 54.2312 37.3291 56.0062 32 56C18.745 56 8 45.256 8 32Z" fill="white"/>
</svg>
