<svg width="64" height="64" viewBox="0 0 64 64" fill="none" xmlns="http://www.w3.org/2000/svg">
<path fill="transparent" d="M40 56V32H24V56M40 42.6667H24M40 24H24M40 16.1023V16C40 13.515 40 12.2725 39.5941 11.2923C39.0528 9.98555 38.0144 8.94728 36.7077 8.40597C35.7275 8 34.4851 8 32 8C29.5149 8 28.2725 8 27.2923 8.40597C25.9855 8.94728 24.9473 9.98555 24.406 11.2923C24 12.2725 24 13.515 24 16V16.1023M40 16.1023C38.3237 16 36.2573 16 33.6 16H30.4C27.7427 16 25.6762 16 24 16.1023M40 16.1023C42.0917 16.2301 43.5757 16.5172 44.8427 17.1626C46.8496 18.1853 48.4813 19.817 49.504 21.8241C50.6667 24.1058 50.6667 27.0928 50.6667 33.0667V47.4667C50.6667 50.4536 50.6667 51.9472 50.0853 53.088C49.5741 54.0915 48.7581 54.9075 47.7547 55.4187C46.6139 56 45.1203 56 42.1333 56H21.8667C18.8797 56 17.3862 56 16.2454 55.4187C15.2418 54.9075 14.4259 54.0915 13.9146 53.088C13.3333 51.9472 13.3333 50.4536 13.3333 47.4667V33.0667C13.3333 27.0928 13.3333 24.1058 14.4959 21.8241C15.5186 19.817 17.1504 18.1853 19.1574 17.1626C20.4241 16.5172 21.9082 16.2301 24 16.1023" stroke="white" stroke-width="4" stroke-linecap="round" stroke-linejoin="round"/>
</svg>
