<svg width="64" height="64" viewBox="0 0 64 64" fill="none" xmlns="http://www.w3.org/2000/svg">
<path fill="transparent" d="M26.32 15.12L17.2 20.6667L13.04 13.84C11.52 11.3334 12.32 8.0267 14.8267 6.5067C17.3333 4.9867 20.64 5.78665 22.16 8.29332L26.32 15.12Z" stroke="white" stroke-width="4" stroke-linecap="round" stroke-linejoin="round"/>
<path fill="transparent" d="M31.52 24.4266L23.0933 29.5467C18.1867 32.5334 16.6933 38.56 19.0666 43.36L24.5333 54.5067C26.2933 58.1067 30.56 59.36 33.9733 57.2534L51.12 46.8267C54.56 44.7467 55.3867 40.4 53.0133 37.1734L45.6267 27.2C42.4267 22.8801 36.4267 21.44 31.52 24.4266Z" stroke="white" stroke-width="4" stroke-linecap="round" stroke-linejoin="round"/>
<path fill="transparent" d="M28.6845 13.5945L15.0189 21.9161L20.5666 31.0265L34.2323 22.7049L28.6845 13.5945Z" stroke="white" stroke-width="4" stroke-linecap="round" stroke-linejoin="round"/>
<path d="M38.16 44.827L42.56 52.0537" stroke="white" stroke-width="4" stroke-linecap="round" stroke-linejoin="round"/>
<path d="M31.3333 48.9867L35.7333 56.2134" stroke="white" stroke-width="4" stroke-linecap="round" stroke-linejoin="round"/>
<path d="M44.9867 40.6667L49.3867 47.8934" stroke="white" stroke-width="4" stroke-linecap="round" stroke-linejoin="round"/>
</svg>
