<svg width="64" height="64" viewBox="0 0 64 64" fill="none" xmlns="http://www.w3.org/2000/svg">
<path fill="transparent" d="M34.6667 56V29.3333H13.3333V56M50.6667 56C53.6123 56 56 53.6123 56 50.6667C56 47.7211 53.6123 45.3333 50.6667 45.3333C47.7211 45.3333 45.3333 47.7211 45.3333 50.6667C45.3333 53.6123 47.7211 56 50.6667 56ZM50.6667 56H8M21.3333 29.3333V37.3333M24 21.3333C26.3915 21.3333 28.4155 19.7593 29.092 17.5906C29.4059 16.5855 29.0216 15.5325 28.4376 14.6564L24 8L19.5624 14.6564C18.9783 15.5325 18.5942 16.5855 18.9079 17.5906C19.5846 19.7593 21.6085 21.3333 24 21.3333Z" stroke="white" stroke-width="4" stroke-linecap="round" stroke-linejoin="round"/>
</svg>
