<svg width="64" height="64" viewBox="0 0 64 64" fill="none" xmlns="http://www.w3.org/2000/svg">
<path d="M22.6625 49.3004C22.787 50.048 23.4937 50.5532 24.2407 50.4286L26.0443 50.1278C26.7915 50.003 27.2962 49.296 27.1717 48.5484L25.4624 38.2848C25.3378 37.5372 24.6313 37.0322 23.8841 37.1568L22.0805 37.4576C21.3334 37.5822 20.8286 38.2894 20.9531 39.037L22.6625 49.3004Z" fill="white"/>
<path d="M36.8277 48.5484C36.7033 49.296 37.208 50.003 37.955 50.1278L39.7586 50.4286C40.5058 50.5532 41.2123 50.048 41.3369 49.3004L43.0464 39.0355C43.171 38.2878 42.6663 37.5806 41.9191 37.456L40.1154 37.1552C39.3685 37.0307 38.6617 37.5358 38.5374 38.2835L36.8277 48.5484Z" fill="white"/>
<path fill-rule="evenodd" clip-rule="evenodd" d="M48.5419 20.5423H14.9238L27.8254 8.438C28.4702 7.83318 28.5026 6.81987 27.8983 6.17473L26.9605 5.17347C26.3561 4.52833 25.3435 4.49565 24.6987 5.10047L8.74761 20.0659C8.59831 20.206 8.48181 20.368 8.39847 20.5423H4.57143C3.30907 20.5423 2.28572 21.5664 2.28572 22.8297V31.9794C2.28572 33.2427 3.30907 34.267 4.57143 34.267H5.54329L10.4366 57.2555C10.7064 58.5227 11.8247 59.4286 13.1193 59.4286H50.8768C52.1714 59.4286 53.2898 58.5227 53.5595 57.2555L58.4528 34.267H59.4286C60.691 34.267 61.7143 33.2427 61.7143 31.9794V22.8297C61.7143 21.5664 60.691 20.5423 59.4286 20.5423H55.4873C55.3922 20.358 55.2594 20.1893 55.0903 20.0482L36.9771 4.94257C36.2983 4.37645 35.2894 4.46824 34.7237 5.1476L33.8457 6.20195C33.28 6.88129 33.3717 7.89096 34.0505 8.45709L48.5419 20.5423ZM8.22857 25.1172C7.47115 25.1172 6.85714 25.7316 6.85714 26.4896V28.3195C6.85714 29.0775 7.47115 29.6921 8.22857 29.6921H55.7714C56.5289 29.6921 57.1429 29.0775 57.1429 28.3195V26.4896C57.1429 25.7316 56.5289 25.1172 55.7714 25.1172H8.22857ZM10.6291 36.2016C10.4171 35.2055 11.1762 34.267 12.194 34.267H51.8021C52.8199 34.267 53.579 35.2055 53.3671 36.2016L49.6665 53.586C49.5093 54.3252 48.8569 54.8537 48.1017 54.8537H15.8944C15.1392 54.8537 14.4869 54.3252 14.3296 53.586L10.6291 36.2016Z" fill="white"/>
<circle cx="20" cy="50" r="6" fill="white"/>
<circle cx="32" cy="49" r="6" fill="white"/>
<circle cx="44" cy="50" r="6" fill="white"/>
</svg>
