<svg width="64" height="64" viewBox="0 0 64 64" fill="none" xmlns="http://www.w3.org/2000/svg">
<path d="M31.9999 59.3215C46.9195 59.3215 59.3215 46.9464 59.3215 32C59.3215 17.0804 46.8928 4.67853 31.9731 4.67853C17.0266 4.67853 4.67851 17.0804 4.67851 32C4.67851 46.9464 17.0535 59.3215 31.9999 59.3215ZM31.9999 54.7679C19.357 54.7679 9.25874 44.6429 9.25874 32C9.25874 19.3839 19.3303 9.23213 31.9731 9.23213C44.5891 9.23213 54.7409 19.3839 54.7679 32C54.7947 44.6429 44.616 54.7679 31.9999 54.7679ZM25.4374 20.0536C20.8303 20.0536 17.4821 23.5357 17.4821 28.3572C17.4821 35.5357 25.0891 42.125 30.6606 45.6876C31.116 45.9553 31.7053 46.3304 32.0535 46.3304C32.4016 46.3304 32.9106 45.9553 33.3392 45.6876C38.9106 42.125 46.491 35.5357 46.491 28.3572C46.491 23.5357 43.1695 20.0536 38.5357 20.0536C35.6696 20.0536 33.3392 21.7143 31.9999 24.2054C30.6338 21.7143 28.357 20.0536 25.4374 20.0536Z" fill="#FF9500"/>
</svg>
