<svg width="64" height="64" viewBox="0 0 64 64" fill="none" xmlns="http://www.w3.org/2000/svg">
<path d="M48.7496 9.00748L39.529 18.2281L43.7716 22.4708L52.9923 13.2501L48.7496 9.00748Z" fill="white"/>
<path d="M43.78 24.46C43.5168 24.4615 43.2559 24.4111 43.0122 24.3116C42.7685 24.212 42.5469 24.0654 42.36 23.88L38.12 19.64C37.9325 19.4541 37.7838 19.2329 37.6822 18.9892C37.5807 18.7455 37.5284 18.484 37.5284 18.22C37.5284 17.956 37.5807 17.6946 37.6822 17.4509C37.7838 17.2072 37.9325 16.986 38.12 16.8L49.34 5.58002C50.2789 4.64116 51.5522 4.11371 52.88 4.11371C54.2078 4.11371 55.4811 4.64116 56.42 5.58002C57.3589 6.51889 57.8863 7.79227 57.8863 9.12002C57.8863 10.4478 57.3589 11.7212 56.42 12.66L45.2 23.88C45.0131 24.0654 44.7915 24.212 44.5478 24.3116C44.3041 24.4111 44.0432 24.4615 43.78 24.46ZM42.36 18.22L43.78 19.64L53.58 9.82002C53.7657 9.63437 53.8699 9.38258 53.8699 9.12002C53.8699 8.85747 53.7657 8.60568 53.58 8.42002C53.3944 8.23437 53.1426 8.13007 52.88 8.13007C52.6174 8.13007 52.3657 8.23437 52.18 8.42002L42.36 18.22Z" fill="white"/>
<path d="M43.42 18.58C43.2341 18.3925 43.0129 18.2438 42.7692 18.1422C42.5254 18.0407 42.264 17.9884 42 17.9884C41.736 17.9884 41.4746 18.0407 41.2308 18.1422C40.9871 18.2438 40.7659 18.3925 40.58 18.58L22.78 36.38C20.8566 35.1115 18.5542 34.546 16.262 34.7792C13.9698 35.0125 11.8285 36.0301 10.2 37.66L7.06 40.8C6.22004 41.6478 5.67514 42.7433 5.50586 43.9247C5.33658 45.106 5.5519 46.3105 6.12 47.36C6.21168 47.0683 6.36905 46.8014 6.58 46.58L10.58 42.58C10.9566 42.2034 11.4674 41.9918 12 41.9918C12.5326 41.9918 13.0434 42.2034 13.42 42.58C13.7966 42.9566 14.0082 43.4674 14.0082 44C14.0082 44.5326 13.7966 45.0434 13.42 45.42L9.42 49.42C9.12163 49.6997 8.7447 49.8812 8.34 49.94L12 53.66C12.0588 53.2553 12.2403 52.8784 12.52 52.58L16.52 48.58C16.7065 48.3935 16.9279 48.2456 17.1715 48.1447C17.4151 48.0438 17.6763 47.9918 17.94 47.9918C18.2037 47.9918 18.4649 48.0438 18.7085 48.1447C18.9521 48.2456 19.1735 48.3935 19.36 48.58C19.5465 48.7665 19.6944 48.9879 19.7953 49.2315C19.8962 49.4751 19.9482 49.7363 19.9482 50C19.9482 50.2637 19.8962 50.5249 19.7953 50.7685C19.6944 51.0121 19.5465 51.2335 19.36 51.42L15.36 55.42C15.1386 55.631 14.8717 55.7883 14.58 55.88C15.6278 56.4545 16.8338 56.6735 18.0168 56.504C19.1997 56.3344 20.2957 55.7856 21.14 54.94L24.28 51.8C25.9099 50.1715 26.9275 48.0302 27.1608 45.738C27.394 43.4458 26.8285 41.1434 25.56 39.22L43.36 21.42C43.5514 21.2381 43.7049 21.02 43.8117 20.7784C43.9184 20.5369 43.9762 20.2765 43.9818 20.0125C43.9874 19.7485 43.9406 19.4859 43.8442 19.2401C43.7477 18.9942 43.6036 18.7699 43.42 18.58Z" fill="white"/>
</svg>
