<svg width="64" height="64" viewBox="0 0 64 64" fill="none" xmlns="http://www.w3.org/2000/svg">
<path fill="transparent" d="M37.3333 18.854C34.1955 17.0389 30.5523 16 26.6667 16C14.8846 16 5.33333 25.5513 5.33333 37.3333C5.33333 40.7459 6.13464 43.9715 7.55939 46.832C7.938 47.592 8.06403 48.4611 7.84451 49.2813L6.57389 54.0301C6.02229 56.0917 7.90829 57.9776 9.96981 57.4261L14.7187 56.1555C15.5391 55.936 16.4079 56.0621 17.1681 56.4405C20.0285 57.8653 23.254 58.6667 26.6667 58.6667C38.4488 58.6667 48 49.1155 48 37.3333C48 33.4477 46.9611 29.8045 45.1459 26.6667" stroke="white" stroke-width="4" stroke-linecap="round"/>
<path fill="transparent" d="M48 38.6714C48.1773 38.5975 48.3531 38.5207 48.5272 38.4412C49.4928 38.0002 50.5763 37.8351 51.6016 38.1095L52.8712 38.4492C55.448 39.1386 57.8053 36.7813 57.116 34.2045L56.7763 32.9349C56.5019 31.9095 56.6669 30.826 57.108 29.8604C58.1088 27.6692 58.6667 25.233 58.6667 22.6666C58.6667 19.269 57.6891 16.0998 56 13.4247M25.3333 15.9882C27.9483 9.73056 34.1272 5.33325 41.3333 5.33325C44.7696 5.33325 47.9725 6.33325 50.6667 8.05811" stroke="white" stroke-width="4" stroke-linecap="round"/>
<path d="M17.3821 37.3333H17.4061M26.6907 37.3333H26.7147M36 37.3333H36.024" stroke="white" stroke-width="4" stroke-linecap="round" stroke-linejoin="round"/>
</svg>
