<svg width="64" height="64" viewBox="0 0 64 64" fill="none" xmlns="http://www.w3.org/2000/svg">
<path d="M13.3333 32H10.6667V53.3333C10.6667 54.7478 11.2286 56.1044 12.2288 57.1045C13.229 58.1047 14.5855 58.6666 16 58.6666H29.3333V32H13.3333ZM48 32H34.6667V58.6666H48C49.4145 58.6666 50.771 58.1047 51.7712 57.1045C52.7714 56.1044 53.3333 54.7478 53.3333 53.3333V32H48ZM50.1093 18.6666C50.5004 17.3701 50.6884 16.0208 50.6667 14.6666C50.6667 9.51998 46.48 5.33331 41.3333 5.33331C37.008 5.33331 34.12 9.28531 32.256 13.56C30.4187 9.51998 27.384 5.33331 22.6667 5.33331C17.52 5.33331 13.3333 9.51998 13.3333 14.6666C13.3333 16.256 13.544 17.5706 13.8907 18.6666H5.33333V29.3333H29.3333V24H34.6667V29.3333H58.6667V18.6666H50.1093ZM18.6667 14.6666C18.6667 12.4613 20.4613 10.6666 22.6667 10.6666C25.0347 10.6666 27.2373 14.7333 28.528 18.6666H21.3333C20.336 18.6666 18.6667 18.6666 18.6667 14.6666ZM41.3333 10.6666C43.5387 10.6666 45.3333 12.4613 45.3333 14.6666C45.3333 18.6666 43.664 18.6666 42.6667 18.6666H36.0613C37.4213 14.464 39.3973 10.6666 41.3333 10.6666Z" fill="white"/>
</svg>
