<svg width="64" height="64" viewBox="0 0 64 64" fill="none" xmlns="http://www.w3.org/2000/svg">
<path d="M10.666 23.464H10.675L15.63 21.399C15.7368 21.338 15.8265 21.251 15.8908 21.1462C15.9552 21.0413 15.992 20.9219 15.998 20.799C15.9923 20.6761 15.9556 20.5566 15.8912 20.4517C15.8269 20.3468 15.737 20.2598 15.63 20.199L10.673 18.132H10.666L8.6 13.168C8.54475 13.0572 8.45971 12.964 8.35443 12.8989C8.24916 12.8338 8.1278 12.7992 8.004 12.7992C7.8802 12.7992 7.75885 12.8338 7.65357 12.8989C7.54829 12.964 7.46325 13.0572 7.408 13.168L5.338 18.131H5.333L0.37 20.2C0.262626 20.2606 0.172366 20.3474 0.107658 20.4523C0.0429508 20.5573 0.00591021 20.6769 0 20.8C0.00597905 20.9229 0.0428308 21.0423 0.10715 21.1472C0.17147 21.252 0.261183 21.339 0.368 21.4L5.327 23.46H5.334L7.4 28.426C7.45498 28.5371 7.53993 28.6306 7.64524 28.696C7.75055 28.7614 7.87204 28.7961 7.996 28.7961C8.11996 28.7961 8.24145 28.7614 8.34676 28.696C8.45208 28.6306 8.53702 28.5371 8.592 28.426L10.661 23.464H10.666ZM47.138 53.141L47.038 53.099L46.938 53.049C46.2966 52.7275 45.7573 52.2339 45.3804 51.6234C45.0035 51.0128 44.8039 50.3095 44.8039 49.592C44.8039 48.8745 45.0035 48.1712 45.3804 47.5607C45.7573 46.9502 46.2966 46.4565 46.938 46.135L47.038 46.086L47.138 46.043L50.887 44.48L52.45 40.732L52.491 40.632L52.538 40.537C52.923 39.763 53.596 39.174 54.373 38.803C54.373 38.67 54.398 38.534 54.4 38.403V20.8C54.4 19.9513 54.0629 19.1374 53.4627 18.5373C52.8626 17.9372 52.0487 17.6 51.2 17.6C50.3513 17.6 49.5374 17.9372 48.9373 18.5373C48.3371 19.1374 48 19.9513 48 20.8V28C48 28.2122 47.9157 28.4157 47.7657 28.5657C47.6157 28.7157 47.4122 28.8 47.2 28.8H45.6C45.3878 28.8 45.1843 28.7157 45.0343 28.5657C44.8843 28.4157 44.8 28.2122 44.8 28V12.8C44.8 11.9513 44.4629 11.1374 43.8627 10.5373C43.2626 9.93717 42.4487 9.60002 41.6 9.60002C40.7513 9.60002 39.9374 9.93717 39.3373 10.5373C38.7371 11.1374 38.4 11.9513 38.4 12.8V28C38.4 28.2122 38.3157 28.4157 38.1657 28.5657C38.0157 28.7157 37.8122 28.8 37.6 28.8H36C35.7878 28.8 35.5843 28.7157 35.4343 28.5657C35.2843 28.4157 35.2 28.2122 35.2 28V9.60002C35.2 8.75133 34.8629 7.9374 34.2627 7.33728C33.6626 6.73717 32.8487 6.40002 32 6.40002C31.1513 6.40002 30.3374 6.73717 29.7373 7.33728C29.1371 7.9374 28.8 8.75133 28.8 9.60002V28C28.8 28.2122 28.7157 28.4157 28.5657 28.5657C28.4157 28.7157 28.2122 28.8 28 28.8H26.4C26.1878 28.8 25.9843 28.7157 25.8343 28.5657C25.6843 28.4157 25.6 28.2122 25.6 28V12.8C25.6 11.9513 25.2629 11.1374 24.6627 10.5373C24.0626 9.93717 23.2487 9.60002 22.4 9.60002C21.5513 9.60002 20.7374 9.93717 20.1373 10.5373C19.5371 11.1374 19.2 11.9513 19.2 12.8V36.9L16.841 33.651C16.2165 32.7929 15.2768 32.218 14.2285 32.0528C13.1801 31.8876 12.1091 32.1456 11.251 32.77C10.3929 33.3945 9.81799 34.3342 9.65277 35.3826C9.48755 36.4309 9.74555 37.5019 10.37 38.36L22.93 55.621C23.3752 56.2329 23.9585 56.7311 24.6326 57.075C25.3066 57.4188 26.0523 57.5987 26.809 57.6H46.57C48.494 57.6 50.135 56.427 50.894 54.721L50.887 54.704L47.138 53.141ZM34.979 40.352L32 41.593L30.758 44.571C30.7247 44.6373 30.6737 44.6931 30.6105 44.732C30.5474 44.771 30.4747 44.7916 30.4005 44.7916C30.3263 44.7916 30.2536 44.771 30.1905 44.732C30.1273 44.6931 30.0763 44.6373 30.043 44.571L28.8 41.593L25.821 40.352C25.7544 40.3188 25.6984 40.2678 25.6593 40.2045C25.6202 40.1413 25.5994 40.0684 25.5994 39.994C25.5994 39.9197 25.6202 39.8468 25.6593 39.7835C25.6984 39.7203 25.7544 39.6692 25.821 39.636L28.8 38.394L30.042 35.416C30.0753 35.3497 30.1263 35.294 30.1895 35.255C30.2526 35.2161 30.3253 35.1954 30.3995 35.1954C30.4737 35.1954 30.5464 35.2161 30.6095 35.255C30.6727 35.294 30.7237 35.3497 30.757 35.416L32 38.394L34.979 39.636C35.0456 39.6692 35.1016 39.7203 35.1407 39.7835C35.1798 39.8468 35.2006 39.9197 35.2006 39.994C35.2006 40.0684 35.1798 40.1413 35.1407 40.2045C35.1016 40.2678 35.0456 40.3188 34.979 40.352ZM64 49.591C63.9944 49.4681 63.9577 49.3485 63.8933 49.2436C63.829 49.1387 63.7391 49.0518 63.632 48.991L58.675 46.924H58.668L56.6 41.963C56.5448 41.8522 56.4597 41.759 56.3544 41.6939C56.2492 41.6288 56.1278 41.5942 56.004 41.5942C55.8802 41.5942 55.7588 41.6288 55.6536 41.6939C55.5483 41.759 55.4633 41.8522 55.408 41.963L53.338 46.926H53.333L48.37 49C48.2629 49.0608 48.173 49.1477 48.1087 49.2526C48.0443 49.3575 48.0076 49.4771 48.002 49.6C48.0085 49.7221 48.0457 49.8406 48.11 49.9446C48.1743 50.0485 48.2637 50.1347 48.37 50.195L53.327 52.262H53.334L55.4 57.221C55.455 57.3321 55.5399 57.4256 55.6452 57.491C55.7506 57.5564 55.872 57.5911 55.996 57.5911C56.12 57.5911 56.2414 57.5564 56.3468 57.491C56.4521 57.4256 56.537 57.3321 56.592 57.221L58.661 52.259H58.67L63.625 50.193C63.7313 50.1327 63.8207 50.0465 63.885 49.9426C63.9493 49.8386 63.9865 49.7201 63.993 49.598L64 49.591Z" fill="white"/>
</svg>
