<svg width="64" height="64" viewBox="0 0 64 64" fill="none" xmlns="http://www.w3.org/2000/svg">
<path fill-rule="evenodd" clip-rule="evenodd" d="M8.78128 8.78104C7.73989 9.82245 7.73989 11.5109 8.78128 12.5523L11.4479 15.219C12.4894 16.2603 14.1778 16.2603 15.2192 15.219C16.2606 14.1775 16.2606 12.4891 15.2192 11.4477L12.5525 8.78104C11.5111 7.73965 9.82269 7.73965 8.78128 8.78104ZM51.448 8.78104C52.4893 7.73965 54.1779 7.73965 55.2192 8.78104C56.2605 9.82245 56.2605 11.5109 55.2192 12.5523L52.5525 15.219C51.5112 16.2603 49.8227 16.2603 48.7813 15.219C47.74 14.1775 47.74 12.4891 48.7813 11.4477L51.448 8.78104ZM52.5525 38.1144L55.2192 40.7811C56.2605 41.8224 56.2605 43.5109 55.2192 44.5523C54.1779 45.5936 52.4893 45.5936 51.448 44.5523L48.7813 41.8856C47.74 40.8443 47.74 39.1557 48.7813 38.1144C49.8227 37.0731 51.5112 37.0731 52.5525 38.1144ZM8.78128 44.5523C7.73989 43.5109 7.73989 41.8224 8.78128 40.7811L11.4479 38.1144C12.4894 37.0731 14.1778 37.0731 15.2192 38.1144C16.2606 39.1557 16.2606 40.8443 15.2192 41.8856L12.5525 44.5523C11.5111 45.5936 9.82269 45.5936 8.78128 44.5523ZM54.4379 29.3333C55.9107 29.3336 57.1045 28.1397 57.1045 26.6669C57.1048 25.1942 55.9109 24.0002 54.4381 24.0001L53.3336 24C51.8608 23.9999 50.6669 25.1937 50.6667 26.6665C50.6667 28.1392 51.8605 29.3333 53.3333 29.3333H54.4379ZM5.33333 27.2192C5.33344 28.692 6.52744 29.8859 8.00019 29.8856H9.10475C10.5775 29.8856 11.7713 28.6915 11.7712 27.2187C11.7711 25.746 10.5771 24.5521 9.10437 24.5522L7.99981 24.5523C6.52707 24.5524 5.33323 25.7464 5.33333 27.2192ZM41.1643 39.7837C45.2973 36.8909 48 32.0944 48 26.6667C48 17.8301 40.8365 10.6667 32 10.6667C23.1634 10.6667 16 17.8301 16 26.6667C16 32.0944 18.7027 36.8909 22.8357 39.7837C21.8966 40.9325 21.3333 42.4005 21.3333 44C21.3333 47.2264 23.6253 49.9176 26.6699 50.5339C26.6677 50.5779 26.6667 50.6221 26.6667 50.6667C26.6667 52.1395 27.8605 53.3333 29.3333 53.3333H34.6667C36.1395 53.3333 37.3333 52.1395 37.3333 50.6667C37.3333 50.6221 37.3323 50.5779 37.3301 50.5339C40.3747 49.9176 42.6667 47.2264 42.6667 44C42.6667 42.4005 42.1035 40.9325 41.1643 39.7837ZM32 37.3333C37.8909 37.3333 42.6667 32.5576 42.6667 26.6667C42.6667 20.7756 37.8909 16 32 16C26.109 16 21.3333 20.7756 21.3333 26.6667C21.3333 32.5576 26.109 37.3333 32 37.3333ZM32 42.6667H31.7723H28C27.2637 42.6667 26.6667 43.2637 26.6667 44C26.6667 44.7363 27.2637 45.3333 28 45.3333H31.7723H32.2277H36C36.7363 45.3333 37.3333 44.7363 37.3333 44C37.3333 43.2637 36.7363 42.6667 36 42.6667H32.2277H32Z" fill="white"/>
</svg>
