<svg width="64" height="64" viewBox="0 0 64 64" fill="none" xmlns="http://www.w3.org/2000/svg">
<path fill-rule="evenodd" clip-rule="evenodd" d="M29.5243 46.9815C30.5982 49.4682 31.4632 52.0395 32.1103 54.6695C33.9974 62.3576 26.9383 64 26.9383 64L19.0686 50.9373L5.25106 47.0444C5.25106 47.0444 6.48114 39.6079 12.6595 39.8735C15.1826 39.9783 17.9713 40.2439 20.3895 40.5235C22.1927 37.8047 24.5411 34.2333 27.0641 30.522L4 22.6106C4 22.6106 5.39783 11.2462 17.3492 13.8252C22.3744 14.9085 30.0974 16.4392 35.9473 17.5784C37.9392 14.7827 39.7215 12.3435 41.0843 10.6452C46.7316 3.64904 55.6287 -1.88635 58.7459 0.608766C61.863 3.10389 59.312 13.343 53.6438 20.423C49.5272 25.6229 36.3387 39.7407 29.5243 46.9815ZM56.3766 44.3186C60.7098 53.3276 50.2261 59.2753 50.2261 59.2753L40.001 43.2003L49.9815 31.2279C52.1342 35.5892 54.4825 40.4257 56.3766 44.3466V44.3186Z" fill="white"/>
</svg>
