<svg width="64" height="64" viewBox="0 0 64 64" fill="none" xmlns="http://www.w3.org/2000/svg">
<path fill="transparent" fill-rule="evenodd" clip-rule="evenodd" d="M27.5686 46.08H36.4314C40.2739 46.1514 43.447 43.095 43.52 39.2525V32.4275C43.447 28.585 40.2739 25.5286 36.4314 25.6H27.5686C23.7261 25.5286 20.5528 28.585 20.48 32.4275V39.255C20.5542 43.0966 23.7271 46.1514 27.5686 46.08Z" stroke="white" stroke-width="1.5" stroke-linecap="round" stroke-linejoin="round"/>
<path d="M25.9827 10.56C25.4526 9.64169 24.2784 9.32702 23.3601 9.85722C22.4417 10.3874 22.1271 11.5616 22.6573 12.48L25.9827 10.56ZM27.0912 20.16C27.6214 21.0783 28.7956 21.393 29.7139 20.8628C30.6322 20.3326 30.9468 19.1583 30.4166 18.24L27.0912 20.16ZM41.3427 12.48C41.8729 11.5616 41.5583 10.3874 40.64 9.85722C39.7217 9.32702 38.5475 9.64169 38.0173 10.56L41.3427 12.48ZM33.5834 18.24C33.0532 19.1583 33.3678 20.3326 34.2861 20.8628C35.2043 21.393 36.3786 21.0783 36.9088 20.16L33.5834 18.24ZM35.2461 17.28C34.1857 17.28 33.3261 18.1396 33.3261 19.2C33.3261 20.2604 34.1857 21.12 35.2461 21.12V17.28ZM38.8915 19.2L38.8974 17.28H38.8915V19.2ZM49.92 30.2925L48 30.2871V30.2925H49.92ZM49.92 41.385H48V41.3908L49.92 41.385ZM38.8915 52.48V54.4H38.8974L38.8915 52.48ZM25.1085 52.48L25.1027 54.4H25.1085V52.48ZM14.0801 41.3875L16.0001 41.3929V41.3875H14.0801ZM14.0801 30.2925H16.0001L16 30.2871L14.0801 30.2925ZM25.1085 19.2V17.28H25.1027L25.1085 19.2ZM28.7539 21.12C29.8143 21.12 30.6739 20.2604 30.6739 19.2C30.6739 18.1396 29.8143 17.28 28.7539 17.28V21.12ZM35.2461 21.12C36.3064 21.12 37.1661 20.2604 37.1661 19.2C37.1661 18.1396 36.3064 17.28 35.2461 17.28V21.12ZM28.7539 17.28C27.6936 17.28 26.8339 18.1396 26.8339 19.2C26.8339 20.2604 27.6936 21.12 28.7539 21.12V17.28ZM22.6573 12.48L27.0912 20.16L30.4166 18.24L25.9827 10.56L22.6573 12.48ZM38.0173 10.56L33.5834 18.24L36.9088 20.16L41.3427 12.48L38.0173 10.56ZM35.2461 21.12H38.8915V17.28H35.2461V21.12ZM38.8859 21.12C43.934 21.1351 48.0141 25.2391 48 30.2871L51.84 30.2978C51.86 23.1293 46.0659 17.3015 38.8974 17.28L38.8859 21.12ZM48 30.2925V41.385H51.84V30.2925H48ZM48 41.3908C48.0074 43.8152 47.0513 46.1435 45.342 47.863L48.0653 50.5702C50.4927 48.1282 51.8505 44.8223 51.84 41.3791L48 41.3908ZM45.342 47.863C43.6326 49.5826 41.3105 50.5528 38.8859 50.56L38.8974 54.4C42.3404 54.3897 45.6381 53.012 48.0653 50.5702L45.342 47.863ZM38.8915 50.56H25.1085V54.4H38.8915V50.56ZM25.1143 50.56C20.0663 50.5449 15.986 46.4409 16.0001 41.3929L12.1601 41.3821C12.1401 48.5506 17.9343 54.3785 25.1027 54.4L25.1143 50.56ZM16.0001 41.3875V30.2925H12.1601V41.3875H16.0001ZM16 30.2871C15.986 25.2391 20.0663 21.1351 25.1143 21.12L25.1027 17.28C17.9343 17.3015 12.1401 23.1293 12.1601 30.2978L16 30.2871ZM25.1085 21.12H28.7539V17.28H25.1085V21.12ZM35.2461 17.28H28.7539V21.12H35.2461V17.28Z" fill="white"/>
</svg>
