<svg width="256" height="256" viewBox="0 0 256 256" fill="none" xmlns="http://www.w3.org/2000/svg">
<path d="M136 232C186.81 232 228 190.81 228 140C228 89.1898 186.81 48 136 48C85.1898 48 44 89.1898 44 140C44 190.81 85.1898 232 136 232Z" fill="#767680" fill-opacity="0.12"/>
<path d="M91.892 34.66C84.7298 34.7101 77.8786 37.5935 72.836 42.68C67.7919 37.5933 60.9395 34.7099 53.776 34.66C37.988 34.66 25.188 48.66 25.188 65.964C25.188 83.268 58.54 112.916 72.836 123.352C87.128 112.916 120.48 83.252 120.48 65.964C120.48 48.676 107.68 34.66 91.892 34.66Z" fill="#FF3B30" stroke="#090909" stroke-width="6" stroke-linecap="round" stroke-linejoin="round"/>
<path d="M199.892 142.66C192.73 142.71 185.879 145.593 180.836 150.68C175.792 145.593 168.939 142.71 161.776 142.66C145.988 142.66 133.188 156.66 133.188 173.964C133.188 191.268 166.54 220.916 180.836 231.352C195.128 220.916 228.48 191.252 228.48 173.964C228.48 156.676 215.68 142.66 199.892 142.66Z" fill="#F5F5F5" stroke="#090909" stroke-width="6" stroke-linecap="round" stroke-linejoin="round"/>
<path d="M104 140V148" stroke="#090909" stroke-width="2" stroke-linecap="round" stroke-linejoin="round"/>
<path d="M104 164V172" stroke="#090909" stroke-width="2" stroke-linecap="round" stroke-linejoin="round"/>
<path d="M88 156H96" stroke="#090909" stroke-width="2" stroke-linecap="round" stroke-linejoin="round"/>
<path d="M112 156H120" stroke="#090909" stroke-width="2" stroke-linecap="round" stroke-linejoin="round"/>
<path d="M150 40C155.523 40 160 35.5228 160 30C160 24.4772 155.523 20 150 20C144.477 20 140 24.4772 140 30C140 35.5228 144.477 40 150 40Z" stroke="#090909" stroke-width="2" stroke-linecap="round" stroke-linejoin="round"/>
<path d="M18 248C23.5228 248 28 243.523 28 238C28 232.477 23.5228 228 18 228C12.4772 228 8 232.477 8 238C8 243.523 12.4772 248 18 248Z" stroke="#090909" stroke-width="2" stroke-linecap="round" stroke-linejoin="round"/>
<path d="M130.604 116.4C130.604 117.246 130.353 118.072 129.883 118.776C129.414 119.479 128.746 120.027 127.964 120.351C127.183 120.674 126.323 120.759 125.494 120.594C124.664 120.429 123.902 120.022 123.304 119.424C122.706 118.826 122.299 118.064 122.134 117.234C121.969 116.405 122.054 115.545 122.377 114.764C122.701 113.982 123.249 113.314 123.952 112.845C124.656 112.375 125.482 112.124 126.328 112.124C127.462 112.124 128.55 112.575 129.352 113.376C130.154 114.178 130.604 115.266 130.604 116.4Z" fill="#090909"/>
<path d="M238.604 108.4C238.604 109.246 238.353 110.072 237.883 110.776C237.414 111.479 236.746 112.027 235.964 112.351C235.183 112.674 234.323 112.759 233.494 112.594C232.664 112.429 231.902 112.022 231.304 111.424C230.706 110.826 230.299 110.064 230.134 109.234C229.969 108.405 230.054 107.545 230.377 106.764C230.701 105.982 231.249 105.314 231.952 104.845C232.656 104.375 233.482 104.124 234.328 104.124C235.462 104.124 236.55 104.575 237.352 105.376C238.154 106.178 238.604 107.266 238.604 108.4Z" fill="#090909"/>
<path d="M26.604 16.4C26.6024 17.2454 26.3503 18.0713 25.8795 18.7734C25.4087 19.4756 24.7403 20.0224 23.9588 20.3448C23.1773 20.6672 22.3178 20.7508 21.4889 20.5849C20.66 20.419 19.8988 20.0111 19.3016 19.4128C18.7044 18.8144 18.2979 18.0525 18.1336 17.2233C17.9692 16.394 18.0544 15.5347 18.3783 14.7538C18.7021 13.9729 19.2502 13.3056 19.9532 12.8361C20.6562 12.3666 21.4826 12.116 22.328 12.116C22.8902 12.116 23.4469 12.2269 23.9662 12.4423C24.4855 12.6576 24.9573 12.9733 25.3544 13.3712C25.7516 13.7691 26.0664 14.2415 26.2808 14.7612C26.4952 15.2809 26.6051 15.8378 26.604 16.4Z" fill="#090909"/>
<path d="M234.604 232.4C234.604 233.246 234.353 234.072 233.883 234.776C233.414 235.479 232.746 236.027 231.964 236.351C231.183 236.674 230.323 236.759 229.494 236.594C228.664 236.429 227.902 236.022 227.304 235.424C226.706 234.826 226.299 234.064 226.134 233.234C225.969 232.405 226.054 231.545 226.377 230.764C226.701 229.982 227.249 229.314 227.952 228.845C228.656 228.375 229.482 228.124 230.328 228.124C230.89 228.124 231.446 228.235 231.964 228.449C232.483 228.664 232.955 228.979 233.352 229.376C233.749 229.773 234.064 230.245 234.279 230.764C234.493 231.282 234.604 231.838 234.604 232.4Z" fill="#090909"/>
<path d="M22.604 128.4C22.604 129.246 22.3532 130.072 21.8834 130.776C21.4135 131.479 20.7457 132.027 19.9644 132.351C19.183 132.674 18.3233 132.759 17.4938 132.594C16.6643 132.429 15.9024 132.022 15.3044 131.424C14.7064 130.826 14.2992 130.064 14.1342 129.234C13.9692 128.405 14.0539 127.545 14.3775 126.764C14.7011 125.982 15.2492 125.314 15.9524 124.845C16.6556 124.375 17.4823 124.124 18.328 124.124C19.4621 124.124 20.5497 124.575 21.3516 125.376C22.1535 126.178 22.604 127.266 22.604 128.4Z" fill="#090909"/>
<path d="M184.16 73.96C181.408 73.9791 178.775 75.0863 176.836 77.04C174.895 75.0868 172.261 73.9798 169.508 73.96C166.456 74.1052 163.587 75.4538 161.527 77.7104C159.468 79.9671 158.386 82.9478 158.52 86C158.52 92.644 171.32 104.048 176.836 108.06C182.328 104.06 195.148 92.644 195.148 86C195.282 82.9478 194.2 79.9671 192.141 77.7104C190.081 75.4538 187.212 74.1052 184.16 73.96Z" fill="#30B0C7" stroke="#090909" stroke-width="6" stroke-linecap="round" stroke-linejoin="round"/>
<path d="M228.16 17.96C225.408 17.9791 222.775 19.0863 220.836 21.04C218.895 19.0868 216.261 17.9798 213.508 17.96C210.456 18.1052 207.587 19.4538 205.527 21.7104C203.468 23.9671 202.386 26.9478 202.52 30C202.52 36.644 215.32 48.048 220.836 52.06C226.328 48.06 239.148 36.644 239.148 30C239.282 26.9478 238.2 23.9671 236.141 21.7104C234.081 19.4538 231.212 18.1052 228.16 17.96Z" fill="#F5F5F5" stroke="#090909" stroke-width="6" stroke-linecap="round" stroke-linejoin="round"/>
<path d="M56.16 157.96C53.4077 157.979 50.7747 159.086 48.836 161.04C46.8953 159.087 44.2613 157.98 41.508 157.96C38.4563 158.105 35.5866 159.454 33.5271 161.71C31.4677 163.967 30.3864 166.948 30.52 170C30.52 176.644 43.34 188.048 48.836 192.06C54.328 188.06 67.148 176.644 67.148 170C67.2816 166.948 66.2003 163.967 64.1409 161.71C62.0814 159.454 59.2117 158.105 56.16 157.96Z" fill="#30B0C7" stroke="#090909" stroke-width="6" stroke-linecap="round" stroke-linejoin="round"/>
<path d="M108.16 205.96C105.408 205.979 102.775 207.086 100.836 209.04C98.8953 207.087 96.2613 205.98 93.508 205.96C90.4563 206.105 87.5866 207.454 85.5271 209.71C83.4677 211.967 82.3864 214.948 82.52 218C82.52 224.644 95.34 236.048 100.836 240.06C106.328 236.06 119.148 224.644 119.148 218C119.282 214.948 118.2 211.967 116.141 209.71C114.081 207.454 111.212 206.105 108.16 205.96Z" fill="#FF3B30" stroke="#090909" stroke-width="6" stroke-linecap="round" stroke-linejoin="round"/>
</svg>
