<svg width="64" height="64" viewBox="0 0 64 64" fill="none" xmlns="http://www.w3.org/2000/svg">
<path fill-rule="evenodd" clip-rule="evenodd" d="M34.6667 16C37.6123 16 40 13.6122 40 10.6666C40 7.72113 37.6123 5.33331 34.6667 5.33331C31.7213 5.33331 29.3333 7.72113 29.3333 10.6666C29.3333 13.6122 31.7213 16 34.6667 16ZM29.4741 17.6148C30.3576 17.1731 31.4131 17.2559 32.2168 17.83L34.8835 19.7348C35.7317 20.3408 36.1491 21.3856 35.952 22.4093L33.1552 36.9253L44.8856 54.5208C45.7024 55.7461 45.3715 57.4018 44.1459 58.2189C42.9205 59.0357 41.2648 58.7045 40.448 57.4792L28.1109 38.9738L25.9363 35.7117C25.5556 35.1408 25.4098 34.445 25.529 33.769L27.1197 24.7549L22.359 27.1352L20.8342 34.7557C20.5452 36.2 19.1402 37.1362 17.6961 36.8474C16.252 36.5584 15.3155 35.1533 15.6045 33.7093L17.3853 24.8101C17.5467 24.0033 18.0716 23.3161 18.8075 22.9482L29.4741 17.6148ZM44.4901 34.5298L36.8248 31.9746L37.8424 26.6922L46.1768 29.4701C47.5739 29.936 48.3291 31.4461 47.8632 32.8432C47.3976 34.2405 45.8875 34.9957 44.4901 34.5298ZM16.3425 54.6925L25.057 39.2002L25.8922 40.453L28.376 44.1784L20.9909 57.3074C20.2689 58.5909 18.643 59.0461 17.3594 58.3242C16.0757 57.6021 15.6205 55.9762 16.3425 54.6925Z" fill="white"/>
</svg>
